<svg width="26" height="28" viewBox="0 0 26 28" fill="none" xmlns="http://www.w3.org/2000/svg">
<rect width="26" height="28" fill="#E5E5E5"/>
<g clip-path="url(#clip0)">
<rect width="1440" height="1419" transform="translate(-505 -1175)" fill="#F6F0F0"/>
<rect x="-66.5" y="-751.5" width="735" height="833" rx="7.5" fill="white" stroke="#E6E6F0"/>
<path d="M-66 -54H668V74C668 78.4183 664.418 82 660 82H-58C-62.4183 82 -66 78.4183 -66 74V-54Z" fill="#FAFAFC"/>
<path d="M13 14V8" stroke="#E14B56" stroke-width="2" stroke-linecap="round" stroke-linejoin="round"/>
<path d="M13 19.3333L13 19.3333" stroke="#E14B56" stroke-width="2" stroke-linecap="round" stroke-linejoin="round"/>
<path d="M1 17.1747V10.8253C1 8.68932 2.136 6.71465 3.98133 5.63998L9.98133 2.14798C11.8467 1.06265 14.152 1.06265 16.0173 2.14798L22.0173 5.63998C23.864 6.71465 25 8.68932 25 10.8253V17.1747C25 19.3107 23.864 21.2853 22.0187 22.36L16.0187 25.852C14.1533 26.9373 11.848 26.9373 9.98267 25.852L3.98267 22.36C2.136 21.2853 1 19.3107 1 17.1747V17.1747Z" stroke="#E14B56" stroke-width="2" stroke-linecap="round" stroke-linejoin="round"/>
</g>
<defs>
<clipPath id="clip0">
<rect width="1440" height="1419" fill="white" transform="translate(-505 -1175)"/>
</clipPath>
</defs>
</svg>
